<svg width="616" height="223" viewBox="0 0 616 223" fill="none" xmlns="http://www.w3.org/2000/svg">
<path fill-rule="evenodd" clip-rule="evenodd" d="M96.2869 1.0292L0.422516 101.726C4.93472 49.7701 45.0786 8.0155 96.2869 1.0292Z" fill="#B589D6"/>
<path fill-rule="evenodd" clip-rule="evenodd" d="M0.472927 101.162L95.7262 1.10714C100.879 0.37743 106.146 0 111.5 0C128.91 0 145.388 3.99016 160.069 11.1059L13.6169 164.94C4.93544 149.072 0 130.863 0 111.5C0 108.014 0.159955 104.566 0.472927 101.162Z" fill="#9969C7"/>
<path fill-rule="evenodd" clip-rule="evenodd" d="M107.571 143.324L201.082 45.1C190.328 30.6166 176.146 18.8313 159.736 10.945L13.4398 164.615C17.8805 172.796 23.3152 180.359 29.5818 187.142L111.852 106.94L107.571 143.324Z" fill="#804FB3"/>
<path fill-rule="evenodd" clip-rule="evenodd" d="M105.257 222.828L222.392 99.7888C220.254 79.3046 212.57 60.47 200.868 44.8132L107.64 142.741L98.2877 222.225C100.59 222.497 102.914 222.699 105.257 222.828Z" fill="#6A359C"/>
<path fill-rule="evenodd" clip-rule="evenodd" d="M223 111.5C223 173.08 173.08 223 111.5 223C109.249 223 107.014 222.933 104.796 222.802L222.343 99.3292C222.777 103.326 223 107.387 223 111.5Z" fill="#552586"/>
<path d="M277.003 164V48.3636H346.339V60.7855H291.006V99.858H341.145V112.28H291.006V164H277.003ZM368.515 164V77.2727H381.841V164H368.515ZM375.291 62.8182C372.694 62.8182 370.454 61.9336 368.572 60.1644C366.727 58.3952 365.805 56.2685 365.805 53.7841C365.805 51.2997 366.727 49.1729 368.572 47.4038C370.454 45.6346 372.694 44.75 375.291 44.75C377.888 44.75 380.109 45.6346 381.954 47.4038C383.836 49.1729 384.777 51.2997 384.777 53.7841C384.777 56.2685 383.836 58.3952 381.954 60.1644C380.109 61.9336 377.888 62.8182 375.291 62.8182ZM406.247 164V77.2727H419.12V90.8239H420.25C422.056 86.1939 424.974 82.5991 429.001 80.0394C433.029 77.4421 437.866 76.1435 443.512 76.1435C449.234 76.1435 453.996 77.4421 457.798 80.0394C461.637 82.5991 464.63 86.1939 466.775 90.8239H467.679C469.9 86.3445 473.231 82.7873 477.673 80.1523C482.114 77.4798 487.441 76.1435 493.652 76.1435C501.406 76.1435 507.749 78.5714 512.68 83.4272C517.611 88.2454 520.076 95.755 520.076 105.956V164H506.751V105.956C506.751 99.5568 505.001 94.9833 501.5 92.2354C497.999 89.4876 493.877 88.1136 489.135 88.1136C483.037 88.1136 478.313 89.9581 474.962 93.647C471.612 97.2983 469.937 101.928 469.937 107.537V164H456.386V104.601C456.386 99.6697 454.786 95.6985 451.587 92.6871C448.387 89.6381 444.265 88.1136 439.221 88.1136C435.758 88.1136 432.521 89.0359 429.51 90.8803C426.536 92.7248 424.127 95.2844 422.282 98.5593C420.475 101.797 419.572 105.542 419.572 109.795V164H406.247ZM605.872 96.696L593.902 100.084C593.149 98.0888 592.039 96.1502 590.57 94.2681C589.14 92.3484 587.183 90.7674 584.698 89.5252C582.214 88.283 579.033 87.6619 575.156 87.6619C569.849 87.6619 565.426 88.8853 561.887 91.332C558.387 93.7411 556.636 96.8089 556.636 100.536C556.636 103.848 557.841 106.464 560.25 108.384C562.659 110.304 566.423 111.903 571.542 113.183L584.416 116.345C592.17 118.227 597.948 121.107 601.75 124.984C605.552 128.824 607.453 133.773 607.453 139.834C607.453 144.803 606.023 149.244 603.162 153.159C600.339 157.074 596.386 160.161 591.305 162.419C586.223 164.678 580.313 165.807 573.575 165.807C564.729 165.807 557.408 163.887 551.611 160.048C545.814 156.208 542.144 150.599 540.601 143.222L553.248 140.06C554.453 144.727 556.73 148.228 560.08 150.562C563.468 152.896 567.891 154.062 573.349 154.062C579.56 154.062 584.491 152.745 588.143 150.11C591.832 147.437 593.676 144.238 593.676 140.511C593.676 137.5 592.622 134.978 590.514 132.945C588.406 130.875 585.169 129.332 580.802 128.315L566.348 124.928C558.405 123.045 552.571 120.128 548.844 116.176C545.155 112.186 543.311 107.198 543.311 101.213C543.311 96.3196 544.685 91.9908 547.433 88.2266C550.218 84.4624 554.001 81.5075 558.782 79.3619C563.6 77.2163 569.058 76.1435 575.156 76.1435C583.738 76.1435 590.476 78.0256 595.37 81.7898C600.301 85.554 603.802 90.5227 605.872 96.696Z" fill="black"/>
</svg>
