<svg id="SvgjsSvg1001" width="288" height="288" xmlns="http://www.w3.org/2000/svg" version="1.1" xmlns:xlink="http://www.w3.org/1999/xlink" xmlns:svgjs="http://svgjs.com/svgjs"><defs id="SvgjsDefs1002"></defs><g id="SvgjsG1008"><svg xmlns="http://www.w3.org/2000/svg" data-name="Layer 1" viewBox="0 0 595.28 595.28" width="288" height="288"><path fill="#ffffff" d="M108.22,460.41S503,650.59,503,180.63C503,180.63,108.22,113,108.22,460.41Zm49.69,2.65S401.34,433.47,477.42,234C477.42,234,466.43,478.27,157.91,463.06Z" class="color3f86c7 svgShape"></path><path fill="#ffffff" d="M234.12,151.52c51.61,28.76,81.28,11.21,81.28,11.21,63.43-34.68,156.32-2.27,156.32-2.27C328.65,23.42,234.12,151.52,234.12,151.52Zm75.61-6.79a14.81,14.81,0,1,1,0-20.95A14.82,14.82,0,0,1,309.73,144.73Z" class="color3f86c7 svgShape"></path></svg></g></svg>