<svg width="289" height="289" viewBox="0 0 289 289" fill="none" xmlns="http://www.w3.org/2000/svg">
<path fill-rule="evenodd" clip-rule="evenodd" d="M124.784 1.33382L0.547485 131.833C6.39517 64.5003 58.4202 10.3878 124.784 1.33382Z" fill="#B589D6"/>
<path fill-rule="evenodd" clip-rule="evenodd" d="M0.6129 131.102L124.058 1.43482C130.736 0.489138 137.561 0 144.5 0C167.063 0 188.417 5.1711 207.444 14.3928L17.647 213.756C6.39615 193.192 0 169.593 0 144.5C0 139.983 0.207298 135.514 0.6129 131.102Z" fill="#9969C7"/>
<path fill-rule="evenodd" clip-rule="evenodd" d="M139.408 185.742L260.594 58.4479C246.659 39.678 228.279 24.4047 207.012 14.1843L17.4175 213.335C23.1725 223.938 30.2156 233.739 38.3369 242.53L144.956 138.591L139.408 185.742Z" fill="#804FB3"/>
<path fill-rule="evenodd" clip-rule="evenodd" d="M139.497 184.987L127.377 287.996C130.361 288.348 133.373 288.61 136.41 288.777L288.212 129.323C285.442 102.776 275.483 78.3669 260.318 58.0764L139.497 184.987Z" fill="#6A359C"/>
<path fill-rule="evenodd" clip-rule="evenodd" d="M289 144.5C289 224.305 224.305 289 144.5 289C141.583 289 138.686 288.913 135.812 288.743L288.149 128.727C288.711 133.907 289 139.17 289 144.5Z" fill="#552586"/>
</svg>
